# 3ds Max Wavefront OBJ Exporter v0.97b - (c)2007 guruware
# File Created: 19.10.2009 12:32:52

mtllib Handle1.mtl

#
# object Box01
#

v  -46.6001 20.7460 55.9798
v  46.6001 20.7460 55.9798
v  46.6001 20.7460 38.6798
v  -46.6001 20.7460 38.6798
v  46.6001 17.8960 55.9798
v  46.6001 17.8960 38.6798
v  -46.6001 17.8960 38.6798
v  -46.6001 17.8960 55.9798
v  46.3649 17.8960 55.9798
v  46.3649 17.8960 38.6798
v  43.5149 17.8960 38.6798
v  43.5149 0.0000 38.6798
v  43.5149 0.0000 55.9798
v  43.5149 17.8960 55.9798
v  53.8321 0.0000 38.6798
v  53.8321 0.0000 55.9798
v  46.3649 2.8500 55.9798
v  46.3649 2.8500 38.6798
v  53.8321 2.8500 38.6798
v  53.8321 2.8500 55.9798
v  -43.4443 17.8960 38.6798
v  -43.4443 17.8960 55.9798
v  -46.2943 17.8960 38.6798
v  -46.2943 17.8960 55.9798
v  -43.4443 0.0000 55.9798
v  -43.4443 0.0000 38.6798
v  -46.2943 2.8500 38.6798
v  -46.2943 2.8500 55.9798
v  -53.7153 0.0000 55.9798
v  -53.7153 0.0000 38.6798
v  -53.7153 2.8500 55.9798
v  -53.7153 2.8500 38.6798
# 32 vertices

vn -0.5773 0.5773 0.5774
vn 0.5774 0.5774 0.5774
vn 0.5774 0.5774 -0.5773
vn -0.5773 0.5773 -0.5774
vn 0.5774 -0.5774 0.5774
vn 0.5774 -0.5774 -0.5774
vn -0.5774 -0.5774 -0.5774
vn -0.5774 -0.5774 0.5774
vn 0.3015 -0.3015 0.9045
vn 0.3015 -0.3015 -0.9045
vn -0.3015 -0.3015 -0.9045
vn -0.3015 -0.3015 0.9045
vn 0.3015 0.3015 0.9045
vn 0.3015 0.3015 -0.9045
vn 0.5774 0.5774 -0.5774
vn -0.3015 0.3015 -0.9045
vn -0.3015 0.3015 0.9045
vn -0.5774 0.5774 0.5774
vn -0.5774 0.5774 -0.5774
# 19 vertex normals

vt 0.0000 0.0000 0.0000
vt 1.0000 0.0000 0.0000
vt 1.0000 1.0000 0.0000
vt 0.0000 1.0000 0.0000
vt 0.0025 0.0000 0.0000
vt 0.0025 1.0000 0.0000
vt 0.0000 0.9004 0.0000
vt 1.0000 0.9004 0.0000
vt -2.6201 1.0000 0.0000
vt -2.6201 0.0000 0.0000
vt 0.0000 0.1434 0.0000
vt 1.0000 0.1434 0.0000
vt 0.2533 1.0000 0.0000
vt 0.2533 0.0000 0.0000
vt 0.9661 1.0000 0.0000
vt 0.0331 1.0000 0.0000
vt 0.0331 0.0000 0.0000
vt 0.9661 0.0000 0.0000
vt 0.9967 1.0000 0.0000
vt 0.9967 0.0000 0.0000
vt -0.0271 1.0000 0.0000
vt -0.0271 0.0000 0.0000
vt 0.7421 0.0000 0.0000
vt 0.7421 1.0000 0.0000
vt 0.9975 0.0000 0.0000
vt 0.0033 0.0000 0.0000
vt 0.0339 0.0000 0.0000
vt 0.0033 -5.2793 0.0000
vt -0.0763 -5.2793 0.0000
vt -0.0763 -6.2793 0.0000
vt 0.0339 -6.2793 0.0000
vt 0.9669 0.0000 0.0000
vt 0.9975 -5.2793 0.0000
vt 0.9669 -6.2793 0.0000
vt 1.0776 -6.2793 0.0000
vt 1.0776 -5.2793 0.0000
vt 1.0763 -6.2793 0.0000
vt 1.0763 -5.2793 0.0000
vt 0.9967 -5.2793 0.0000
vt 0.9661 -6.2793 0.0000
vt 0.0025 -5.2793 0.0000
vt 0.0331 -6.2793 0.0000
vt -0.0776 -6.2793 0.0000
vt -0.0776 -5.2793 0.0000
# 44 texture coords

g Box01
usemtl wire_166229229
s 128
f 1/1/1 2/2/2 3/3/3 4/4/4 
f 5/1/5 6/2/6 3/3/3 2/4/2 
f 7/1/7 8/2/8 1/3/1 4/4/4 
f 6/4/6 5/1/5 9/5/9 10/6/10 
f 11/7/11 12/1/7 13/2/8 14/8/12 
f 15/9/6 16/10/5 13/2/8 12/3/7 
f 10/8/10 9/7/9 17/11/13 18/12/14 
f 19/3/15 18/13/14 17/14/13 20/2/2 
f 16/1/5 15/2/6 19/3/15 20/4/2 
f 21/15/10 11/16/11 14/17/12 22/18/9 
f 23/19/11 24/20/12 8/2/8 7/3/7 
f 22/7/9 25/1/5 26/2/6 21/8/10 
f 27/11/16 28/12/17 24/8/12 23/7/11 
f 29/2/8 30/3/7 26/21/6 25/22/5 
f 31/1/18 28/23/17 27/24/16 32/4/19 
f 31/3/18 32/4/19 30/1/7 29/2/8 
f 9/25/9 5/2/5 2/3/2 1/4/1 
f 1/4/1 8/1/8 24/26/12 22/27/9 
f 28/28/17 31/29/18 29/30/8 25/31/5 
f 28/28/17 25/31/5 22/27/9 24/26/12 
f 1/4/1 22/27/9 14/32/12 9/25/9 
f 17/33/13 9/25/9 14/32/12 13/34/8 
f 17/33/13 13/34/8 16/35/5 20/36/2 
f 30/37/7 32/38/19 27/39/16 26/40/6 
f 21/18/10 26/40/6 27/39/16 23/20/11 
f 23/20/11 7/2/7 4/3/4 21/18/10 
f 11/17/11 21/18/10 4/3/4 10/5/10 
f 3/4/3 6/1/6 10/5/10 4/3/4 
f 11/17/11 10/5/10 18/41/14 12/42/7 
f 15/43/6 12/42/7 18/41/14 19/44/15 
# 30 polygons

