# 3ds Max Wavefront OBJ Exporter v0.97b - (c)2007 guruware
# File Created: 18.10.2009 16:52:15

mtllib Plate1.mtl

#
# object Cylinder01
#

v  37.3789 11.8238 -10.3736
v  35.8415 11.8238 -19.0925
v  38.6247 12.8457 -20.1056
v  40.3407 12.8457 -10.3736
v  31.4148 11.8238 -26.7598
v  33.6837 12.8457 -28.6637
v  24.6326 11.8238 -32.4507
v  26.1136 12.8457 -35.0158
v  16.3131 11.8238 -35.4788
v  16.8274 12.8457 -38.3956
v  7.4597 11.8238 -35.4788
v  6.9453 12.8457 -38.3956
v  -0.8599 11.8238 -32.4507
v  -2.3408 12.8457 -35.0158
v  -7.6420 11.8238 -26.7598
v  -9.9109 12.8457 -28.6637
v  -12.0687 11.8238 -19.0925
v  -14.8519 12.8457 -20.1056
v  -13.6061 11.8238 -10.3736
v  -16.5679 12.8457 -10.3736
v  -12.0687 11.8238 -1.6547
v  -14.8519 12.8457 -0.6416
v  -7.6420 11.8238 6.0127
v  -9.9109 12.8457 7.9165
v  -0.8599 11.8238 11.7035
v  -2.3408 12.8457 14.2686
v  7.4597 11.8238 14.7316
v  6.9453 12.8457 17.6485
v  16.3131 11.8238 14.7316
v  16.8274 12.8457 17.6485
v  24.6326 11.8238 11.7035
v  26.1135 12.8457 14.2686
v  31.4147 11.8238 6.0127
v  33.6837 12.8457 7.9165
v  35.8415 11.8238 -1.6546
v  38.6247 12.8457 -0.6416
v  47.6880 13.8676 -23.4043
v  49.9857 13.8676 -10.3736
v  41.0721 13.8676 -34.8634
v  30.9360 13.8676 -43.3686
v  18.5023 13.8676 -47.8941
v  5.2705 13.8676 -47.8941
v  -7.1633 13.8676 -43.3686
v  -17.2994 13.8676 -34.8634
v  -23.9152 13.8676 -23.4043
v  -26.2129 13.8676 -10.3736
v  -7.1633 13.8676 22.6214
v  -17.2994 13.8676 14.1162
v  5.2705 13.8676 27.1469
v  18.5022 13.8676 27.1469
v  30.9360 13.8676 22.6214
v  41.0721 13.8676 14.1162
v  47.6880 13.8676 2.6572
v  47.6880 14.8895 -23.4043
v  49.9857 14.8895 -10.3736
v  41.0721 14.8895 -34.8634
v  30.9360 14.8895 -43.3686
v  18.5023 14.8895 -47.8941
v  5.2705 14.8895 -47.8941
v  -7.1633 14.8895 -43.3686
v  -17.2994 14.8895 -34.8634
v  -23.9152 14.8895 -23.4043
v  -26.2129 14.8895 -10.3736
v  -7.1633 14.8895 22.6214
v  -17.2994 14.8895 14.1162
v  5.2705 14.8895 27.1469
v  18.5022 14.8895 27.1469
v  30.9360 14.8895 22.6214
v  41.0721 14.8895 14.1162
v  47.6880 14.8895 2.6572
v  34.8192 12.3909 -18.7205
v  36.2910 12.3909 -10.3736
v  30.5814 12.3909 -26.0606
v  24.0887 12.3909 -31.5086
v  16.1242 12.3909 -34.4075
v  7.6486 12.3909 -34.4075
v  -0.3159 12.3909 -31.5086
v  -6.8087 12.3909 -26.0606
v  -11.0465 12.3909 -18.7205
v  -0.3159 12.3909 10.7614
v  7.6486 12.3909 13.6603
v  16.1242 12.3909 13.6603
v  24.0887 12.3909 10.7614
v  30.5814 12.3909 5.3134
v  34.8192 12.3909 -2.0267
v  34.6668 12.3914 -18.6650
v  36.1288 12.3914 -10.3736
v  30.4572 12.3914 -25.9563
v  24.0076 12.3914 -31.3681
v  16.0960 12.3914 -34.2476
v  7.6767 12.3914 -34.2476
v  -0.2348 12.3914 -31.3681
v  -6.6843 12.3914 -25.9563
v  -10.8940 12.3914 -18.6650
v  -12.3560 12.3914 -10.3736
v  -10.8940 12.3914 -2.0822
v  -6.6844 12.3914 5.2091
v  -0.2348 12.3914 10.6209
v  7.6767 12.3914 13.5005
v  16.0960 12.3914 13.5005
v  24.0076 12.3914 10.6209
v  30.4571 12.3914 5.2091
v  34.6668 12.3914 -2.0822
# 103 vertices

vn 0.3262 -0.9453 0.0000
vn 0.3065 -0.9453 -0.1116
vn 0.1927 -0.9787 -0.0702
vn 0.2051 -0.9787 0.0000
vn 0.2498 -0.9453 -0.2096
vn 0.1571 -0.9787 -0.1318
vn 0.1631 -0.9453 -0.2825
vn 0.1026 -0.9787 -0.1776
vn 0.0566 -0.9453 -0.3212
vn 0.0356 -0.9787 -0.2020
vn -0.0566 -0.9453 -0.3212
vn -0.0356 -0.9787 -0.2020
vn -0.1631 -0.9453 -0.2825
vn -0.1026 -0.9787 -0.1776
vn -0.2498 -0.9453 -0.2096
vn -0.1571 -0.9787 -0.1318
vn -0.3065 -0.9453 -0.1116
vn -0.1927 -0.9787 -0.0702
vn -0.3262 -0.9453 -0.0000
vn -0.9703 0.2013 0.1343
vn -0.3065 -0.9453 0.1116
vn -0.9211 0.1978 0.3353
vn -0.2498 -0.9453 0.2096
vn -0.9187 0.1802 0.3515
vn -0.1631 -0.9453 0.2825
vn -0.1026 -0.9787 0.1776
vn -0.0566 -0.9453 0.3212
vn -0.0356 -0.9787 0.2020
vn 0.0566 -0.9453 0.3212
vn 0.0356 -0.9787 0.2020
vn 0.1631 -0.9453 0.2825
vn 0.1026 -0.9787 0.1776
vn 0.2498 -0.9453 0.2096
vn 0.1571 -0.9787 0.1318
vn 0.3065 -0.9453 0.1116
vn 0.1927 -0.9787 0.0702
vn 0.7266 -0.6341 -0.2645
vn 0.7733 -0.6341 0.0000
vn 0.5923 -0.6341 -0.4970
vn 0.3866 -0.6341 -0.6697
vn 0.1343 -0.6341 -0.7615
vn -0.1343 -0.6341 -0.7615
vn -0.3866 -0.6341 -0.6697
vn -0.5923 -0.6341 -0.4970
vn -0.7266 -0.6341 -0.2645
vn -0.7662 -0.6283 -0.1351
vn -0.3866 -0.6341 0.6697
vn -0.5001 -0.6283 0.5960
vn -0.1343 -0.6341 0.7615
vn 0.1343 -0.6341 0.7615
vn 0.3866 -0.6341 0.6697
vn 0.5923 -0.6341 0.4970
vn 0.7266 -0.6341 0.2645
vn 0.6443 0.7279 -0.2345
vn 0.6857 0.7279 0.0000
vn 0.5253 0.7279 -0.4408
vn 0.3428 0.7279 -0.5938
vn 0.1191 0.7279 -0.6753
vn -0.1191 0.7279 -0.6753
vn -0.3428 0.7279 -0.5938
vn -0.5253 0.7279 -0.4408
vn -0.6437 0.7301 -0.2296
vn -0.6716 0.7314 -0.1184
vn -0.3428 0.7279 0.5938
vn -0.4509 0.7267 0.5183
vn -0.1191 0.7279 0.6753
vn 0.1191 0.7279 0.6753
vn 0.3428 0.7279 0.5938
vn 0.5253 0.7279 0.4408
vn 0.6443 0.7279 0.2345
vn -0.0928 0.9951 0.0338
vn -0.0987 0.9951 -0.0000
vn -0.0756 0.9951 0.0635
vn -0.0494 0.9951 0.0855
vn -0.0171 0.9951 0.0972
vn 0.0171 0.9951 0.0972
vn 0.0494 0.9951 0.0855
vn 0.0756 0.9951 0.0635
vn 0.0862 0.9955 0.0386
vn 0.0526 0.9959 -0.0738
vn 0.0171 0.9951 -0.0972
vn -0.0171 0.9951 -0.0972
vn -0.0494 0.9951 -0.0855
vn -0.0756 0.9951 -0.0635
vn -0.0928 0.9951 -0.0338
vn 0.0028 1.0000 -0.0010
vn 0.0029 1.0000 0.0000
vn 0.0023 1.0000 -0.0019
vn 0.0015 1.0000 -0.0026
vn 0.0005 1.0000 -0.0029
vn -0.0005 1.0000 -0.0029
vn -0.0015 1.0000 -0.0026
vn -0.0023 1.0000 -0.0019
vn -0.0028 1.0000 -0.0010
vn 0.1066 0.9943 -0.0012
vn 0.1008 0.9942 -0.0367
vn 0.0822 0.9942 -0.0689
vn 0.0230 0.9997 0.0011
vn -0.0005 1.0000 0.0029
vn 0.0005 1.0000 0.0029
vn 0.0015 1.0000 0.0026
vn 0.0023 1.0000 0.0019
vn 0.0028 1.0000 0.0010
vn 0.0000 -1.0000 -0.0000
vn 0.0000 1.0000 0.0000
vn -0.0000 1.0000 0.0000
vn 0.0000 1.0000 -0.0000
vn -0.0000 1.0000 -0.0000
vn -0.0000 0.0000 1.0000
vn -0.6428 0.0000 -0.7660
# 110 vertex normals

vt 0.7500 0.0000 1.0000
vt 0.8056 0.0000 1.0000
vt 0.8056 0.2000 1.0000
vt 0.7500 0.2000 1.0000
vt 0.8611 0.0000 1.0000
vt 0.8611 0.2000 1.0000
vt 0.9167 0.0000 1.0000
vt 0.9167 0.2000 1.0000
vt 0.9722 0.0000 1.0000
vt 0.9722 0.2000 1.0000
vt 1.0278 0.0000 1.0000
vt 1.0278 0.2000 1.0000
vt 0.0278 0.0000 1.0000
vt 0.0833 0.0000 1.0000
vt 0.0833 0.2000 1.0000
vt 0.0278 0.2000 1.0000
vt 0.1389 0.0000 1.0000
vt 0.1389 0.2000 1.0000
vt 0.1944 0.0000 1.0000
vt 0.1944 0.2000 1.0000
vt 0.2500 0.0000 1.0000
vt 0.2500 0.2000 1.0000
vt 0.3056 0.0000 1.0000
vt 0.3056 0.2000 1.0000
vt 0.3611 0.0000 1.0000
vt 0.3611 0.2000 1.0000
vt 0.4167 0.0000 1.0000
vt 0.4167 0.2000 1.0000
vt 0.4722 0.0000 1.0000
vt 0.4722 0.2000 1.0000
vt 0.5278 0.0000 1.0000
vt 0.5278 0.2000 1.0000
vt 0.5833 0.0000 1.0000
vt 0.5833 0.2000 1.0000
vt 0.6389 0.0000 1.0000
vt 0.6389 0.2000 1.0000
vt 0.6944 0.0000 1.0000
vt 0.6944 0.2000 1.0000
vt 0.8056 0.4000 1.0000
vt 0.7500 0.4000 1.0000
vt 0.8611 0.4000 1.0000
vt 0.9167 0.4000 1.0000
vt 0.9722 0.4000 1.0000
vt 1.0278 0.4000 1.0000
vt 0.0833 0.4000 1.0000
vt 0.0278 0.4000 1.0000
vt 0.1389 0.4000 1.0000
vt 0.1944 0.4000 1.0000
vt 0.2500 0.4000 1.0000
vt 0.4167 0.4000 1.0000
vt 0.3611 0.4000 1.0000
vt 0.4722 0.4000 1.0000
vt 0.5278 0.4000 1.0000
vt 0.5833 0.4000 1.0000
vt 0.6389 0.4000 1.0000
vt 0.6944 0.4000 1.0000
vt 0.8056 0.6000 1.0000
vt 0.7500 0.6000 1.0000
vt 0.8611 0.6000 1.0000
vt 0.9167 0.6000 1.0000
vt 0.9722 0.6000 1.0000
vt 1.0278 0.6000 1.0000
vt 0.0833 0.6000 1.0000
vt 0.0278 0.6000 1.0000
vt 0.1389 0.6000 1.0000
vt 0.1944 0.6000 1.0000
vt 0.2500 0.6000 1.0000
vt 0.4167 0.6000 1.0000
vt 0.3611 0.6000 1.0000
vt 0.4722 0.6000 1.0000
vt 0.5278 0.6000 1.0000
vt 0.5833 0.6000 1.0000
vt 0.6389 0.6000 1.0000
vt 0.6944 0.6000 1.0000
vt 0.8056 0.8000 1.0000
vt 0.7500 0.8000 1.0000
vt 0.8611 0.8000 1.0000
vt 0.9167 0.8000 1.0000
vt 0.9722 0.8000 1.0000
vt 1.0278 0.8000 1.0000
vt 0.0833 0.8000 1.0000
vt 0.0278 0.8000 1.0000
vt 0.1389 0.8000 1.0000
vt 0.1944 0.8000 1.0000
vt 0.2500 0.8000 1.0000
vt 0.4167 0.8000 1.0000
vt 0.3611 0.8000 1.0000
vt 0.4722 0.8000 1.0000
vt 0.5278 0.8000 1.0000
vt 0.5833 0.8000 1.0000
vt 0.6389 0.8000 1.0000
vt 0.6944 0.8000 1.0000
vt 0.8056 1.0000 1.0000
vt 0.7500 1.0000 1.0000
vt 0.8611 1.0000 1.0000
vt 0.9167 1.0000 1.0000
vt 0.9722 1.0000 1.0000
vt 1.0278 1.0000 1.0000
vt 0.0833 1.0000 1.0000
vt 0.0278 1.0000 1.0000
vt 0.1389 1.0000 1.0000
vt 0.1944 1.0000 1.0000
vt 0.2500 1.0000 1.0000
vt 0.3056 0.8000 1.0000
vt 0.3056 1.0000 1.0000
vt 0.3611 1.0000 1.0000
vt 0.4167 1.0000 1.0000
vt 0.4722 1.0000 1.0000
vt 0.5278 1.0000 1.0000
vt 0.5833 1.0000 1.0000
vt 0.6389 1.0000 1.0000
vt 0.6944 1.0000 1.0000
vt 0.8214 0.8830 -0.2500
vt 0.9330 0.7500 -0.2500
vt 0.9924 0.5868 -0.2500
vt 0.5000 1.0000 -0.2500
vt 0.9924 0.4132 -0.2500
vt 0.9330 0.2500 -0.2500
vt 0.6710 0.0302 -0.2500
vt 0.8214 0.1170 -0.2500
vt 0.5000 0.0000 -0.2500
vt 0.3290 0.0302 -0.2500
vt 0.0670 0.2500 -0.2500
vt 0.1786 0.1170 -0.2500
vt 0.0076 0.4132 -0.2500
vt 0.0076 0.5868 -0.2500
vt 0.1786 0.8830 -0.2500
vt 0.0670 0.7500 -0.2500
vt 0.3290 0.9698 -0.2500
vt 0.6710 0.9698 -0.2500
vt 0.3290 0.9698 0.2500
vt 0.1786 0.8830 0.2500
vt 0.0670 0.7500 0.2500
vt 0.6710 0.9698 0.2500
vt 0.0076 0.5868 0.2500
vt 0.0076 0.4132 0.2500
vt 0.1786 0.1170 0.2500
vt 0.0670 0.2500 0.2500
vt 0.3290 0.0302 0.2500
vt 0.5000 0.0000 0.2500
vt 0.8214 0.1170 0.2500
vt 0.6710 0.0302 0.2500
vt 0.9330 0.2500 0.2500
vt 0.9924 0.4132 0.2500
vt 0.9330 0.7500 0.2500
vt 0.9924 0.5868 0.2500
vt 0.8214 0.8830 0.2500
vt 0.5000 1.0000 0.2500
# 148 texture coords

g Cylinder01
usemtl wire_177088026
s 8
f 1/1/1 2/2/2 3/3/3 4/4/4 
f 2/2/2 5/5/5 6/6/6 3/3/3 
f 5/5/5 7/7/7 8/8/8 6/6/6 
f 7/7/7 9/9/9 10/10/10 8/8/8 
f 9/9/9 11/11/11 12/12/12 10/10/10 
f 11/13/11 13/14/13 14/15/14 12/16/12 
f 13/14/13 15/17/15 16/18/16 14/15/14 
f 15/17/15 17/19/17 18/20/18 16/18/16 
f 17/19/17 19/21/19 20/22/20 18/20/18 
f 19/21/19 21/23/21 22/24/22 20/22/20 
f 21/23/21 23/25/23 24/26/24 22/24/22 
f 23/25/23 25/27/25 26/28/26 24/26/24 
f 25/27/25 27/29/27 28/30/28 26/28/26 
f 27/29/27 29/31/29 30/32/30 28/30/28 
f 29/31/29 31/33/31 32/34/32 30/32/30 
f 31/33/31 33/35/33 34/36/34 32/34/32 
f 33/35/33 35/37/35 36/38/36 34/36/34 
f 35/37/35 1/1/1 4/4/4 36/38/36 
f 4/4/4 3/3/3 37/39/37 38/40/38 
f 3/3/3 6/6/6 39/41/39 37/39/37 
f 6/6/6 8/8/8 40/42/40 39/41/39 
f 8/8/8 10/10/10 41/43/41 40/42/40 
f 10/10/10 12/12/12 42/44/42 41/43/41 
f 12/16/12 14/15/14 43/45/43 42/46/42 
f 14/15/14 16/18/16 44/47/44 43/45/43 
f 16/18/16 18/20/18 45/48/45 44/47/44 
f 18/20/18 20/22/20 46/49/46 45/48/45 
f 24/26/24 26/28/26 47/50/47 48/51/48 
f 26/28/26 28/30/28 49/52/49 47/50/47 
f 28/30/28 30/32/30 50/53/50 49/52/49 
f 30/32/30 32/34/32 51/54/51 50/53/50 
f 32/34/32 34/36/34 52/55/52 51/54/51 
f 34/36/34 36/38/36 53/56/53 52/55/52 
f 36/38/36 4/4/4 38/40/38 53/56/53 
f 38/40/38 37/39/37 54/57/54 55/58/55 
f 37/39/37 39/41/39 56/59/56 54/57/54 
f 39/41/39 40/42/40 57/60/57 56/59/56 
f 40/42/40 41/43/41 58/61/58 57/60/57 
f 41/43/41 42/44/42 59/62/59 58/61/58 
f 42/46/42 43/45/43 60/63/60 59/64/59 
f 43/45/43 44/47/44 61/65/61 60/63/60 
f 44/47/44 45/48/45 62/66/62 61/65/61 
f 45/48/45 46/49/46 63/67/63 62/66/62 
f 48/51/48 47/50/47 64/68/64 65/69/65 
f 47/50/47 49/52/49 66/70/66 64/68/64 
f 49/52/49 50/53/50 67/71/67 66/70/66 
f 50/53/50 51/54/51 68/72/68 67/71/67 
f 51/54/51 52/55/52 69/73/69 68/72/68 
f 52/55/52 53/56/53 70/74/70 69/73/69 
f 53/56/53 38/40/38 55/58/55 70/74/70 
f 55/58/55 54/57/54 71/75/71 72/76/72 
f 54/57/54 56/59/56 73/77/73 71/75/71 
f 56/59/56 57/60/57 74/78/74 73/77/73 
f 57/60/57 58/61/58 75/79/75 74/78/74 
f 58/61/58 59/62/59 76/80/76 75/79/75 
f 59/64/59 60/63/60 77/81/77 76/82/76 
f 60/63/60 61/65/61 78/83/78 77/81/77 
f 61/65/61 62/66/62 79/84/79 78/83/78 
f 62/66/62 63/67/63 20/85/20 79/84/79 
f 65/69/65 64/68/64 80/86/80 24/87/24 
f 64/68/64 66/70/66 81/88/81 80/86/80 
f 66/70/66 67/71/67 82/89/82 81/88/81 
f 67/71/67 68/72/68 83/90/83 82/89/82 
f 68/72/68 69/73/69 84/91/84 83/90/83 
f 69/73/69 70/74/70 85/92/85 84/91/84 
f 70/74/70 55/58/55 72/76/72 85/92/85 
f 72/76/72 71/75/71 86/93/86 87/94/87 
f 71/75/71 73/77/73 88/95/88 86/93/86 
f 73/77/73 74/78/74 89/96/89 88/95/88 
f 74/78/74 75/79/75 90/97/90 89/96/89 
f 75/79/75 76/80/76 91/98/91 90/97/90 
f 76/82/76 77/81/77 92/99/92 91/100/91 
f 77/81/77 78/83/78 93/101/93 92/99/92 
f 78/83/78 79/84/79 94/102/94 93/101/93 
f 79/84/79 20/85/20 95/103/95 94/102/94 
f 20/85/20 22/104/22 96/105/96 95/103/95 
f 22/104/22 24/87/24 97/106/97 96/105/96 
f 24/87/24 80/86/80 98/107/98 97/106/97 
f 80/86/80 81/88/81 99/108/99 98/107/98 
f 81/88/81 82/89/82 100/109/100 99/108/99 
f 82/89/82 83/90/83 101/110/101 100/109/100 
f 83/90/83 84/91/84 102/111/102 101/110/101 
f 84/91/84 85/92/85 103/112/103 102/111/102 
f 85/92/85 72/76/72 87/94/87 103/112/103 
s 1
f 33/113/104 31/114/104 29/115/104 1/116/104 
f 29/115/104 27/117/104 25/118/104 21/119/104 
f 25/118/104 23/120/104 21/119/104 
f 21/119/104 19/121/104 17/122/104 13/123/104 
f 17/122/104 15/124/104 13/123/104 
f 13/123/104 11/125/104 9/126/104 5/127/104 
f 9/126/104 7/128/104 5/127/104 
f 21/119/104 13/123/104 5/127/104 29/115/104 
f 5/127/104 2/129/104 1/116/104 29/115/104 
f 35/130/104 33/113/104 1/116/104 
f 86/131/105 88/132/106 89/133/106 103/134/105 
f 89/133/106 90/135/107 91/136/107 93/137/106 
f 91/136/107 92/138/108 93/137/106 
f 93/137/106 94/139/108 95/140/106 97/141/105 
f 95/140/106 96/142/107 97/141/105 
f 97/141/105 98/143/107 99/144/108 101/145/105 
f 99/144/108 100/146/107 101/145/105 
f 93/137/106 97/141/105 101/145/105 89/133/106 
f 101/145/105 102/147/105 103/134/105 89/133/106 
f 87/148/107 86/131/105 103/134/105 
s off
f 20/22/109 63/67/109 46/49/109 
f 48/51/110 65/69/110 24/87/110 
# 96 polygons - 10 triangles

