# 3ds Max Wavefront OBJ Exporter v0.97b - (c)2007 guruware
# File Created: 19.10.2009 12:20:57

mtllib Plate2.mtl

#
# object Cylinder01
#

v  37.3789 9.7972 -10.3736
v  35.8415 9.7972 -19.0925
v  38.6247 10.9527 -20.1056
v  40.3407 10.9527 -10.3736
v  31.4148 9.7972 -26.7598
v  33.6837 10.9527 -28.6637
v  24.6326 9.7972 -32.4507
v  26.1136 10.9527 -35.0158
v  16.3131 9.7972 -35.4788
v  16.8274 10.9527 -38.3956
v  7.4597 9.7972 -35.4788
v  6.9453 10.9527 -38.3956
v  -0.8599 9.7972 -32.4507
v  -2.3408 10.9527 -35.0158
v  -7.6420 9.7972 -26.7598
v  -9.9109 10.9527 -28.6637
v  -12.0687 9.7972 -19.0925
v  -14.8519 10.9527 -20.1056
v  -13.6061 9.7972 -10.3736
v  -16.5679 10.9527 -10.3736
v  -12.0687 9.7972 -1.6547
v  -14.8519 10.9527 -0.6416
v  -7.6420 9.7972 6.0127
v  -9.9109 10.9527 7.9165
v  -0.8599 9.7972 11.7035
v  -2.3408 10.9527 14.2686
v  7.4597 9.7972 14.7316
v  6.9453 10.9527 17.6484
v  16.3131 9.7972 14.7316
v  16.8274 10.9527 17.6485
v  24.6326 9.7972 11.7035
v  26.1135 10.9527 14.2686
v  31.4147 9.7972 6.0127
v  33.6837 10.9527 7.9165
v  35.8415 9.7972 -1.6546
v  38.6247 10.9527 -0.6416
v  47.6880 13.2648 -23.4043
v  49.9857 13.2648 -10.3736
v  41.0721 13.2648 -34.8634
v  30.9360 13.2648 -43.3686
v  18.5023 13.2648 -47.8941
v  5.2705 13.2648 -47.8941
v  -7.1633 13.2648 -43.3686
v  -17.2994 13.2648 -34.8634
v  -23.9152 13.2648 -23.4043
v  -26.2129 13.2648 -10.3736
v  -7.1633 13.2648 22.6214
v  -17.2994 13.2648 14.1162
v  5.2705 13.2648 27.1469
v  18.5022 13.2648 27.1469
v  30.9360 13.2648 22.6214
v  41.0721 13.2648 14.1162
v  47.6880 13.2648 2.6572
v  47.6880 14.3149 -23.4043
v  49.9857 14.3149 -10.3736
v  41.0721 14.3149 -34.8634
v  30.9360 14.3149 -43.3686
v  18.5023 14.3149 -47.8941
v  5.2705 14.3149 -47.8941
v  -7.1633 14.3149 -43.3686
v  -17.2994 14.3149 -34.8634
v  -23.9152 14.3149 -23.4043
v  -26.2129 14.3149 -10.3736
v  -7.1633 14.3149 22.6214
v  -17.2994 14.3149 14.1162
v  5.2705 14.3149 27.1469
v  18.5022 14.3149 27.1469
v  30.9360 14.3149 22.6214
v  41.0721 14.3149 14.1162
v  47.6880 14.3149 2.6572
v  34.8192 10.3862 -18.7205
v  36.2910 10.3862 -10.3736
v  30.5814 10.3862 -26.0606
v  24.0887 10.3862 -31.5086
v  16.1242 10.3862 -34.4075
v  7.6486 10.3862 -34.4075
v  -0.3159 10.3862 -31.5086
v  -6.8087 10.3862 -26.0606
v  -11.0465 10.3862 -18.7205
v  -0.3159 10.3862 10.7614
v  7.6486 10.3862 13.6603
v  16.1242 10.3862 13.6603
v  24.0887 10.3862 10.7614
v  30.5814 10.3862 5.3134
v  34.8192 10.3862 -2.0267
v  34.6668 10.3921 -18.6650
v  36.1288 10.3921 -10.3736
v  30.4572 10.3921 -25.9563
v  24.0076 10.3921 -31.3681
v  16.0960 10.3921 -34.2476
v  7.6767 10.3921 -34.2476
v  -0.2348 10.3921 -31.3681
v  -6.6843 10.3921 -25.9563
v  -10.8940 10.3921 -18.6650
v  -12.3560 10.3921 -10.3736
v  -10.8940 10.3921 -2.0822
v  -6.6844 10.3921 5.2091
v  -0.2348 10.3921 10.6209
v  7.6767 10.3921 13.5005
v  16.0960 10.3921 13.5005
v  24.0076 10.3921 10.6209
v  30.4571 10.3921 5.2091
v  34.6668 10.3921 -2.0822
# 103 vertices

vn 0.3635 -0.9316 0.0000
vn 0.3415 -0.9316 -0.1243
vn 0.2744 -0.9564 -0.0999
vn 0.2920 -0.9564 0.0000
vn 0.2784 -0.9316 -0.2336
vn 0.2237 -0.9564 -0.1877
vn 0.1817 -0.9316 -0.3148
vn 0.1460 -0.9564 -0.2529
vn 0.0631 -0.9316 -0.3579
vn 0.0507 -0.9564 -0.2876
vn -0.0631 -0.9316 -0.3579
vn -0.0507 -0.9564 -0.2876
vn -0.1817 -0.9316 -0.3148
vn -0.1460 -0.9564 -0.2529
vn -0.2784 -0.9316 -0.2336
vn -0.2237 -0.9564 -0.1877
vn -0.3415 -0.9316 -0.1243
vn -0.2744 -0.9564 -0.0999
vn -0.3635 -0.9316 -0.0000
vn -0.9667 0.1817 0.1804
vn -0.3415 -0.9316 0.1243
vn -0.9153 0.2265 0.3331
vn -0.2784 -0.9316 0.2336
vn -0.9801 0.0992 0.1719
vn -0.1817 -0.9316 0.3148
vn -0.1460 -0.9564 0.2529
vn -0.0631 -0.9316 0.3579
vn -0.0507 -0.9564 0.2876
vn 0.0631 -0.9316 0.3579
vn 0.0507 -0.9564 0.2876
vn 0.1817 -0.9316 0.3148
vn 0.1460 -0.9564 0.2529
vn 0.2784 -0.9316 0.2336
vn 0.2237 -0.9564 0.1877
vn 0.3415 -0.9316 0.1243
vn 0.2744 -0.9564 0.0999
vn 0.7602 -0.5879 -0.2767
vn 0.8089 -0.5879 0.0000
vn 0.6197 -0.5879 -0.5200
vn 0.4045 -0.5879 -0.7006
vn 0.1405 -0.5879 -0.7967
vn -0.1405 -0.5879 -0.7967
vn -0.4045 -0.5879 -0.7006
vn -0.6197 -0.5879 -0.5200
vn -0.7602 -0.5879 -0.2767
vn -0.8008 -0.5820 -0.1412
vn -0.4045 -0.5879 0.7006
vn -0.5227 -0.5820 0.6229
vn -0.1405 -0.5879 0.7967
vn 0.1405 -0.5879 0.7967
vn 0.4045 -0.5879 0.7006
vn 0.6197 -0.5879 0.5200
vn 0.7602 -0.5879 0.2767
vn 0.6133 0.7576 -0.2232
vn 0.6527 0.7576 0.0000
vn 0.5000 0.7576 -0.4195
vn 0.3263 0.7576 -0.5652
vn 0.1133 0.7576 -0.6428
vn -0.1133 0.7576 -0.6428
vn -0.3263 0.7576 -0.5652
vn -0.5000 0.7576 -0.4195
vn -0.6119 0.7618 -0.2126
vn -0.6295 0.7691 -0.1110
vn -0.3263 0.7576 0.5652
vn -0.4373 0.7602 0.4804
vn -0.1133 0.7576 0.6428
vn 0.1133 0.7576 0.6428
vn 0.3263 0.7576 0.5652
vn 0.5000 0.7576 0.4195
vn 0.6133 0.7576 0.2232
vn -0.1301 0.9904 0.0473
vn -0.1384 0.9904 -0.0000
vn -0.1060 0.9904 0.0890
vn -0.0692 0.9904 0.1199
vn -0.0240 0.9904 0.1363
vn 0.0240 0.9904 0.1363
vn 0.0692 0.9904 0.1199
vn 0.1060 0.9904 0.0890
vn 0.1167 0.9915 0.0573
vn 0.0721 0.9921 -0.1026
vn 0.0240 0.9904 -0.1363
vn -0.0240 0.9904 -0.1363
vn -0.0692 0.9904 -0.1199
vn -0.1060 0.9904 -0.0890
vn -0.1301 0.9904 -0.0473
vn 0.0340 0.9993 -0.0124
vn 0.0362 0.9993 0.0000
vn 0.0277 0.9993 -0.0233
vn 0.0181 0.9993 -0.0313
vn 0.0063 0.9993 -0.0356
vn -0.0063 0.9993 -0.0356
vn -0.0181 0.9993 -0.0313
vn -0.0277 0.9993 -0.0233
vn -0.0340 0.9993 -0.0124
vn 0.1310 0.9914 -0.0018
vn 0.1240 0.9913 -0.0451
vn 0.1011 0.9913 -0.0848
vn 0.0193 0.9994 0.0291
vn -0.0063 0.9993 0.0356
vn 0.0063 0.9993 0.0356
vn 0.0181 0.9993 0.0313
vn 0.0277 0.9993 0.0233
vn 0.0340 0.9993 0.0124
vn 0.0000 -1.0000 -0.0000
vn 0.0000 1.0000 -0.0000
vn -0.0000 1.0000 -0.0000
vn -0.0000 1.0000 0.0000
vn -0.0000 -0.0000 1.0000
vn -0.6428 0.0000 -0.7660
# 109 vertex normals

vt 0.7500 0.0000 1.0000
vt 0.8056 0.0000 1.0000
vt 0.8056 0.2000 1.0000
vt 0.7500 0.2000 1.0000
vt 0.8611 0.0000 1.0000
vt 0.8611 0.2000 1.0000
vt 0.9167 0.0000 1.0000
vt 0.9167 0.2000 1.0000
vt 0.9722 0.0000 1.0000
vt 0.9722 0.2000 1.0000
vt 1.0278 0.0000 1.0000
vt 1.0278 0.2000 1.0000
vt 0.0278 0.0000 1.0000
vt 0.0833 0.0000 1.0000
vt 0.0833 0.2000 1.0000
vt 0.0278 0.2000 1.0000
vt 0.1389 0.0000 1.0000
vt 0.1389 0.2000 1.0000
vt 0.1944 0.0000 1.0000
vt 0.1944 0.2000 1.0000
vt 0.2500 0.0000 1.0000
vt 0.2500 0.2000 1.0000
vt 0.3056 0.0000 1.0000
vt 0.3056 0.2000 1.0000
vt 0.3611 0.0000 1.0000
vt 0.3611 0.2000 1.0000
vt 0.4167 0.0000 1.0000
vt 0.4167 0.2000 1.0000
vt 0.4722 0.0000 1.0000
vt 0.4722 0.2000 1.0000
vt 0.5278 0.0000 1.0000
vt 0.5278 0.2000 1.0000
vt 0.5833 0.0000 1.0000
vt 0.5833 0.2000 1.0000
vt 0.6389 0.0000 1.0000
vt 0.6389 0.2000 1.0000
vt 0.6944 0.0000 1.0000
vt 0.6944 0.2000 1.0000
vt 0.8056 0.4000 1.0000
vt 0.7500 0.4000 1.0000
vt 0.8611 0.4000 1.0000
vt 0.9167 0.4000 1.0000
vt 0.9722 0.4000 1.0000
vt 1.0278 0.4000 1.0000
vt 0.0833 0.4000 1.0000
vt 0.0278 0.4000 1.0000
vt 0.1389 0.4000 1.0000
vt 0.1944 0.4000 1.0000
vt 0.2500 0.4000 1.0000
vt 0.4167 0.4000 1.0000
vt 0.3611 0.4000 1.0000
vt 0.4722 0.4000 1.0000
vt 0.5278 0.4000 1.0000
vt 0.5833 0.4000 1.0000
vt 0.6389 0.4000 1.0000
vt 0.6944 0.4000 1.0000
vt 0.8056 0.6000 1.0000
vt 0.7500 0.6000 1.0000
vt 0.8611 0.6000 1.0000
vt 0.9167 0.6000 1.0000
vt 0.9722 0.6000 1.0000
vt 1.0278 0.6000 1.0000
vt 0.0833 0.6000 1.0000
vt 0.0278 0.6000 1.0000
vt 0.1389 0.6000 1.0000
vt 0.1944 0.6000 1.0000
vt 0.2500 0.6000 1.0000
vt 0.4167 0.6000 1.0000
vt 0.3611 0.6000 1.0000
vt 0.4722 0.6000 1.0000
vt 0.5278 0.6000 1.0000
vt 0.5833 0.6000 1.0000
vt 0.6389 0.6000 1.0000
vt 0.6944 0.6000 1.0000
vt 0.8056 0.8000 1.0000
vt 0.7500 0.8000 1.0000
vt 0.8611 0.8000 1.0000
vt 0.9167 0.8000 1.0000
vt 0.9722 0.8000 1.0000
vt 1.0278 0.8000 1.0000
vt 0.0833 0.8000 1.0000
vt 0.0278 0.8000 1.0000
vt 0.1389 0.8000 1.0000
vt 0.1944 0.8000 1.0000
vt 0.2500 0.8000 1.0000
vt 0.4167 0.8000 1.0000
vt 0.3611 0.8000 1.0000
vt 0.4722 0.8000 1.0000
vt 0.5278 0.8000 1.0000
vt 0.5833 0.8000 1.0000
vt 0.6389 0.8000 1.0000
vt 0.6944 0.8000 1.0000
vt 0.8056 1.0000 1.0000
vt 0.7500 1.0000 1.0000
vt 0.8611 1.0000 1.0000
vt 0.9167 1.0000 1.0000
vt 0.9722 1.0000 1.0000
vt 1.0278 1.0000 1.0000
vt 0.0833 1.0000 1.0000
vt 0.0278 1.0000 1.0000
vt 0.1389 1.0000 1.0000
vt 0.1944 1.0000 1.0000
vt 0.2500 1.0000 1.0000
vt 0.3056 0.8000 1.0000
vt 0.3056 1.0000 1.0000
vt 0.3611 1.0000 1.0000
vt 0.4167 1.0000 1.0000
vt 0.4722 1.0000 1.0000
vt 0.5278 1.0000 1.0000
vt 0.5833 1.0000 1.0000
vt 0.6389 1.0000 1.0000
vt 0.6944 1.0000 1.0000
vt 0.8214 0.8830 -0.2500
vt 0.9330 0.7500 -0.2500
vt 0.9924 0.5868 -0.2500
vt 0.5000 1.0000 -0.2500
vt 0.9924 0.4132 -0.2500
vt 0.9330 0.2500 -0.2500
vt 0.6710 0.0302 -0.2500
vt 0.8214 0.1170 -0.2500
vt 0.5000 0.0000 -0.2500
vt 0.3290 0.0302 -0.2500
vt 0.0670 0.2500 -0.2500
vt 0.1786 0.1170 -0.2500
vt 0.0076 0.4132 -0.2500
vt 0.0076 0.5868 -0.2500
vt 0.1786 0.8830 -0.2500
vt 0.0670 0.7500 -0.2500
vt 0.3290 0.9698 -0.2500
vt 0.6710 0.9698 -0.2500
vt 0.3290 0.9698 0.2500
vt 0.1786 0.8830 0.2500
vt 0.0670 0.7500 0.2500
vt 0.6710 0.9698 0.2500
vt 0.0076 0.5868 0.2500
vt 0.0076 0.4132 0.2500
vt 0.1786 0.1170 0.2500
vt 0.0670 0.2500 0.2500
vt 0.3290 0.0302 0.2500
vt 0.5000 0.0000 0.2500
vt 0.8214 0.1170 0.2500
vt 0.6710 0.0302 0.2500
vt 0.9330 0.2500 0.2500
vt 0.9924 0.4132 0.2500
vt 0.9330 0.7500 0.2500
vt 0.9924 0.5868 0.2500
vt 0.8214 0.8830 0.2500
vt 0.5000 1.0000 0.2500
# 148 texture coords

g Cylinder01
usemtl wire_177088026
s 8
f 1/1/1 2/2/2 3/3/3 4/4/4 
f 2/2/2 5/5/5 6/6/6 3/3/3 
f 5/5/5 7/7/7 8/8/8 6/6/6 
f 7/7/7 9/9/9 10/10/10 8/8/8 
f 9/9/9 11/11/11 12/12/12 10/10/10 
f 11/13/11 13/14/13 14/15/14 12/16/12 
f 13/14/13 15/17/15 16/18/16 14/15/14 
f 15/17/15 17/19/17 18/20/18 16/18/16 
f 17/19/17 19/21/19 20/22/20 18/20/18 
f 19/21/19 21/23/21 22/24/22 20/22/20 
f 21/23/21 23/25/23 24/26/24 22/24/22 
f 23/25/23 25/27/25 26/28/26 24/26/24 
f 25/27/25 27/29/27 28/30/28 26/28/26 
f 27/29/27 29/31/29 30/32/30 28/30/28 
f 29/31/29 31/33/31 32/34/32 30/32/30 
f 31/33/31 33/35/33 34/36/34 32/34/32 
f 33/35/33 35/37/35 36/38/36 34/36/34 
f 35/37/35 1/1/1 4/4/4 36/38/36 
f 4/4/4 3/3/3 37/39/37 38/40/38 
f 3/3/3 6/6/6 39/41/39 37/39/37 
f 6/6/6 8/8/8 40/42/40 39/41/39 
f 8/8/8 10/10/10 41/43/41 40/42/40 
f 10/10/10 12/12/12 42/44/42 41/43/41 
f 12/16/12 14/15/14 43/45/43 42/46/42 
f 14/15/14 16/18/16 44/47/44 43/45/43 
f 16/18/16 18/20/18 45/48/45 44/47/44 
f 18/20/18 20/22/20 46/49/46 45/48/45 
f 24/26/24 26/28/26 47/50/47 48/51/48 
f 26/28/26 28/30/28 49/52/49 47/50/47 
f 28/30/28 30/32/30 50/53/50 49/52/49 
f 30/32/30 32/34/32 51/54/51 50/53/50 
f 32/34/32 34/36/34 52/55/52 51/54/51 
f 34/36/34 36/38/36 53/56/53 52/55/52 
f 36/38/36 4/4/4 38/40/38 53/56/53 
f 38/40/38 37/39/37 54/57/54 55/58/55 
f 37/39/37 39/41/39 56/59/56 54/57/54 
f 39/41/39 40/42/40 57/60/57 56/59/56 
f 40/42/40 41/43/41 58/61/58 57/60/57 
f 41/43/41 42/44/42 59/62/59 58/61/58 
f 42/46/42 43/45/43 60/63/60 59/64/59 
f 43/45/43 44/47/44 61/65/61 60/63/60 
f 44/47/44 45/48/45 62/66/62 61/65/61 
f 45/48/45 46/49/46 63/67/63 62/66/62 
f 48/51/48 47/50/47 64/68/64 65/69/65 
f 47/50/47 49/52/49 66/70/66 64/68/64 
f 49/52/49 50/53/50 67/71/67 66/70/66 
f 50/53/50 51/54/51 68/72/68 67/71/67 
f 51/54/51 52/55/52 69/73/69 68/72/68 
f 52/55/52 53/56/53 70/74/70 69/73/69 
f 53/56/53 38/40/38 55/58/55 70/74/70 
f 55/58/55 54/57/54 71/75/71 72/76/72 
f 54/57/54 56/59/56 73/77/73 71/75/71 
f 56/59/56 57/60/57 74/78/74 73/77/73 
f 57/60/57 58/61/58 75/79/75 74/78/74 
f 58/61/58 59/62/59 76/80/76 75/79/75 
f 59/64/59 60/63/60 77/81/77 76/82/76 
f 60/63/60 61/65/61 78/83/78 77/81/77 
f 61/65/61 62/66/62 79/84/79 78/83/78 
f 62/66/62 63/67/63 20/85/20 79/84/79 
f 65/69/65 64/68/64 80/86/80 24/87/24 
f 64/68/64 66/70/66 81/88/81 80/86/80 
f 66/70/66 67/71/67 82/89/82 81/88/81 
f 67/71/67 68/72/68 83/90/83 82/89/82 
f 68/72/68 69/73/69 84/91/84 83/90/83 
f 69/73/69 70/74/70 85/92/85 84/91/84 
f 70/74/70 55/58/55 72/76/72 85/92/85 
f 72/76/72 71/75/71 86/93/86 87/94/87 
f 71/75/71 73/77/73 88/95/88 86/93/86 
f 73/77/73 74/78/74 89/96/89 88/95/88 
f 74/78/74 75/79/75 90/97/90 89/96/89 
f 75/79/75 76/80/76 91/98/91 90/97/90 
f 76/82/76 77/81/77 92/99/92 91/100/91 
f 77/81/77 78/83/78 93/101/93 92/99/92 
f 78/83/78 79/84/79 94/102/94 93/101/93 
f 79/84/79 20/85/20 95/103/95 94/102/94 
f 20/85/20 22/104/22 96/105/96 95/103/95 
f 22/104/22 24/87/24 97/106/97 96/105/96 
f 24/87/24 80/86/80 98/107/98 97/106/97 
f 80/86/80 81/88/81 99/108/99 98/107/98 
f 81/88/81 82/89/82 100/109/100 99/108/99 
f 82/89/82 83/90/83 101/110/101 100/109/100 
f 83/90/83 84/91/84 102/111/102 101/110/101 
f 84/91/84 85/92/85 103/112/103 102/111/102 
f 85/92/85 72/76/72 87/94/87 103/112/103 
s 1
f 33/113/104 31/114/104 29/115/104 1/116/104 
f 29/115/104 27/117/104 25/118/104 21/119/104 
f 25/118/104 23/120/104 21/119/104 
f 21/119/104 19/121/104 17/122/104 13/123/104 
f 17/122/104 15/124/104 13/123/104 
f 13/123/104 11/125/104 9/126/104 5/127/104 
f 9/126/104 7/128/104 5/127/104 
f 21/119/104 13/123/104 5/127/104 29/115/104 
f 5/127/104 2/129/104 1/116/104 29/115/104 
f 35/130/104 33/113/104 1/116/104 
f 86/131/105 88/132/105 89/133/105 103/134/105 
f 89/133/105 90/135/105 91/136/106 93/137/106 
f 91/136/106 92/138/106 93/137/106 
f 93/137/106 94/139/106 95/140/107 97/141/107 
f 95/140/107 96/142/107 97/141/107 
f 97/141/107 98/143/105 99/144/106 101/145/106 
f 99/144/106 100/146/105 101/145/106 
f 93/137/106 97/141/107 101/145/106 89/133/105 
f 101/145/106 102/147/106 103/134/105 89/133/105 
f 87/148/107 86/131/105 103/134/105 
s off
f 20/22/108 63/67/108 46/49/108 
f 48/51/109 65/69/109 24/87/109 
# 96 polygons - 10 triangles

